<?xml version="1.0" standalone="no"?><!DOCTYPE svg PUBLIC "-//W3C//DTD SVG 1.1//EN" "http://www.w3.org/Graphics/SVG/1.1/DTD/svg11.dtd"><svg t="1558428970113" class="icon" style="" viewBox="0 0 1024 1024" version="1.1" xmlns="http://www.w3.org/2000/svg" p-id="34439" xmlns:xlink="http://www.w3.org/1999/xlink" width="500" height="500"><defs><style type="text/css"></style></defs><path d="M858.666667 240h-160c-13.866667 0-26.666667 4.266667-37.333334 10.666667V149.333333c0-38.4-30.933333-69.333333-69.333333-69.333333h-160c-38.4 0-69.333333 30.933333-69.333333 69.333333v197.333334c-10.666667-7.466667-23.466667-10.666667-37.333334-10.666667h-160C126.933333 336 96 366.933333 96 405.333333v469.333334c0 38.4 30.933333 69.333333 69.333333 69.333333h160c21.333333 0 40.533333-9.6 53.333334-25.6 12.8 14.933333 32 25.6 53.333333 25.6h160c21.333333 0 40.533333-9.6 53.333333-25.6 12.8 14.933333 32 25.6 53.333334 25.6h160c38.4 0 69.333333-30.933333 69.333333-69.333333V309.333333c0-38.4-30.933333-69.333333-69.333333-69.333333z m-533.333334 672h-160c-20.266667 0-37.333333-17.066667-37.333333-37.333333V405.333333c0-20.266667 17.066667-37.333333 37.333333-37.333333h160c20.266667 0 37.333333 17.066667 37.333334 37.333333v469.333334c0 20.266667-17.066667 37.333333-37.333334 37.333333z m266.666667 0h-160c-20.266667 0-37.333333-17.066667-37.333333-37.333333V149.333333c0-20.266667 17.066667-37.333333 37.333333-37.333333h160c20.266667 0 37.333333 17.066667 37.333333 37.333333v725.333334c0 20.266667-17.066667 37.333333-37.333333 37.333333zM896 874.666667c0 20.266667-17.066667 37.333333-37.333333 37.333333h-160c-20.266667 0-37.333333-17.066667-37.333334-37.333333V309.333333c0-20.266667 17.066667-37.333333 37.333334-37.333333h160c20.266667 0 37.333333 17.066667 37.333333 37.333333v565.333334z" fill="#8a8a8a" p-id="34440"></path><path d="M304 837.333333h-128c-8.533333 0-16 7.466667-16 16s7.466667 16 16 16h128c8.533333 0 16-7.466667 16-16s-7.466667-16-16-16zM576 837.333333H448c-8.533333 0-16 7.466667-16 16s7.466667 16 16 16h128c8.533333 0 16-7.466667 16-16s-7.466667-16-16-16zM842.666667 837.333333H714.666667c-8.533333 0-16 7.466667-16 16s7.466667 16 16 16h128c8.533333 0 16-7.466667 16-16s-7.466667-16-16-16z" fill="#8a8a8a" p-id="34441"></path></svg>