<?xml version="1.0" standalone="no"?><!DOCTYPE svg PUBLIC "-//W3C//DTD SVG 1.1//EN" "http://www.w3.org/Graphics/SVG/1.1/DTD/svg11.dtd"><svg t="1558428134794" class="icon" style="" viewBox="0 0 1024 1024" version="1.1" xmlns="http://www.w3.org/2000/svg" p-id="27787" xmlns:xlink="http://www.w3.org/1999/xlink" width="230" height="230"><defs><style type="text/css"></style></defs><path d="M512 556.032c-121.856 0-220.16-98.304-220.16-220.16S390.144 115.712 512 115.712s220.16 98.304 220.16 220.16S633.856 556.032 512 556.032z m0-358.4c-75.776 0-138.24 62.464-138.24 138.24S436.224 474.112 512 474.112s138.24-62.464 138.24-138.24S587.776 197.632 512 197.632z" fill="#8a8a8a" p-id="27788"></path><path d="M829.44 564.224H686.08v81.92h91.136l-51.2 181.248H297.984l-51.2-181.248H337.92v-81.92H194.56L154.624 614.4l71.68 263.168 39.936 31.744h491.52l39.936-31.744 71.68-263.168z" fill="#8a8a8a" p-id="27789"></path></svg>