<?xml version="1.0" standalone="no"?><!DOCTYPE svg PUBLIC "-//W3C//DTD SVG 1.1//EN" "http://www.w3.org/Graphics/SVG/1.1/DTD/svg11.dtd"><svg t="1558428543602" class="icon" style="" viewBox="0 0 1024 1024" version="1.1" xmlns="http://www.w3.org/2000/svg" p-id="33151" xmlns:xlink="http://www.w3.org/1999/xlink" width="500" height="500"><defs><style type="text/css"></style></defs><path d="M585.6 787.7H438.4c-9.9 0-17.9-8-17.9-17.9V572.5c0-19.8 16-35.8 35.8-35.8h111.4c19.8 0 35.8 16 35.8 35.8v197.3c0 9.9-8 17.9-17.9 17.9z" fill="#fe8e99" p-id="33152"></path><path d="M846.1 429.1L578.3 185c-37.8-34.4-94.8-34.4-132.6 0L177.8 429.1c-7.3 6.7-7.8 18-1.2 25.3 3.5 3.9 8.4 5.8 13.2 5.8 4.3 0 8.6-1.5 12-4.7l46.8-42.6v294.2c0 54.3 44.2 98.4 98.4 98.4h329.8c54.3 0 98.4-44.2 98.4-98.4V412.9l46.8 42.6c7.3 6.7 18.6 6.1 25.3-1.2 6.7-7.2 6.1-18.6-1.2-25.2zM438.4 769.8V572.5c0-9.9 8-17.9 17.9-17.9h111.4c9.9 0 17.9 8 17.9 17.9v197.3H438.4z m301.1-62.7c0 34.5-28.1 62.6-62.6 62.6h-55.5V572.5c0-29.6-24.1-53.7-53.7-53.7H456.3c-29.6 0-53.7 24.1-53.7 53.7v197.3h-55.5c-34.5 0-62.6-28.1-62.6-62.6V380.3l185.3-168.9c24-21.9 60.3-21.9 84.4 0l185.3 168.8v326.9z" fill="#fe8e99" p-id="33153"></path><path d="M588.8 447.6h61.7c9.9 0 17.9-8 17.9-17.9s-8-17.9-17.9-17.9h-61.7c-9.9 0-17.9 8-17.9 17.9s8 17.9 17.9 17.9z" fill="#fe8e99" p-id="33154"></path></svg>